<svg width="288" height="133" viewBox="0 0 288 133" fill="none" xmlns="http://www.w3.org/2000/svg">
<path d="M0.4 27H4.12V14L14.6 27H19.32L8.08 13.04L18.76 0.199999H14.28L4.12 12.44V0.199999H0.4V27ZM23.3791 37H26.8991L37.4991 8.6H33.9791L28.7791 22.6L23.8591 8.6H20.1391L26.8991 27.56L23.3791 37ZM49.7738 24.2C46.3338 24.2 43.8138 21.52 43.8138 17.8C43.8138 14.12 46.3338 11.4 49.7738 11.4C53.1738 11.4 55.8138 14.08 55.8138 17.8C55.8138 21.52 53.1738 24.2 49.7738 24.2ZM40.6938 37H44.1338V24.56C45.6138 26.36 47.8138 27.44 50.3338 27.44C55.3338 27.44 59.2538 23.16 59.2538 17.8C59.2538 12.4 55.3338 8.16 50.4138 8.16C47.7338 8.16 45.4938 9.4 44.0538 11.36V8.6H40.6938V37ZM68.7072 27.44C71.0272 27.44 73.0672 26.48 74.5872 24.56V27H78.0272V15.88C78.0272 11.4 74.8272 8.16 70.2672 8.16C67.6272 8.16 65.2672 9.2 63.4272 11.28L65.7472 13.56C66.8672 12.04 68.3072 11.28 70.0672 11.28C72.7472 11.28 74.5872 13.2 74.5872 16.04V16.96C72.9872 16.08 71.3472 15.64 69.4272 15.64C65.3072 15.64 62.2672 18.2 62.2672 21.68C62.2672 25.04 64.9472 27.44 68.7072 27.44ZM69.4272 24.52C67.1472 24.52 65.7072 23.36 65.7072 21.48C65.7072 19.6 67.2272 18.36 69.6272 18.36C71.4672 18.36 72.9072 18.84 74.5472 19.96C74.3472 22.68 72.2672 24.52 69.4272 24.52ZM86.0563 27H89.4963V11.72H95.1363V8.6H80.4563V11.72H86.0563V27ZM105.504 27.44C110.784 27.44 115.024 23.12 115.024 17.8C115.024 12.44 110.784 8.16 105.504 8.16C100.184 8.16 95.9438 12.48 95.9438 17.8C95.9438 23.16 100.184 27.44 105.504 27.44ZM105.504 24.2C102.024 24.2 99.5038 21.52 99.5038 17.8C99.5038 14.08 102.024 11.4 105.504 11.4C108.984 11.4 111.464 14.08 111.464 17.8C111.464 21.52 108.984 24.2 105.504 24.2ZM128.289 24.2C124.849 24.2 122.329 21.52 122.329 17.8C122.329 14.12 124.849 11.4 128.289 11.4C131.689 11.4 134.329 14.08 134.329 17.8C134.329 21.52 131.689 24.2 128.289 24.2ZM119.209 37H122.649V24.56C124.129 26.36 126.329 27.44 128.849 27.44C133.849 27.44 137.769 23.16 137.769 17.8C137.769 12.4 133.849 8.16 128.929 8.16C126.249 8.16 124.009 9.4 122.569 11.36V8.6H119.209V37ZM144.383 27.24C145.743 27.24 146.783 26.2 146.783 24.84C146.783 23.48 145.743 22.44 144.383 22.44C143.023 22.44 141.983 23.48 141.983 24.84C141.983 26.2 143.023 27.24 144.383 27.24ZM144.383 13.16C145.743 13.16 146.783 12.16 146.783 10.76C146.783 9.4 145.743 8.36 144.383 8.36C143.023 8.36 141.983 9.4 141.983 10.76C141.983 12.16 143.023 13.16 144.383 13.16ZM138.825 75H145.305L150.185 65.6H152.265V75H158.105V48.2H149.545C143.945 48.2 139.905 51.84 139.905 56.92C139.905 60.24 141.665 62.96 144.465 64.4L138.825 75ZM149.865 60.4C147.385 60.4 145.745 59.04 145.745 56.88C145.745 54.76 147.385 53.4 149.865 53.4H152.265V60.4H149.865ZM173.022 70.68C170.382 70.68 168.462 68.56 168.462 65.8C168.462 63.04 170.382 60.92 173.022 60.92C175.622 60.92 177.582 63.04 177.582 65.8C177.582 68.56 175.622 70.68 173.022 70.68ZM163.302 85H168.662V73.4C170.062 74.76 171.982 75.56 174.102 75.56C179.142 75.56 182.942 71.28 182.942 65.8C182.942 60.28 179.142 56.04 174.222 56.04C171.822 56.04 169.862 57.04 168.462 58.6V56.6H163.302V85ZM195.228 75.56C200.748 75.56 205.108 71.24 205.108 65.8C205.108 60.36 200.748 56.04 195.228 56.04C189.668 56.04 185.348 60.32 185.348 65.8C185.348 71.24 189.708 75.56 195.228 75.56ZM195.228 70.48C192.628 70.48 190.828 68.56 190.828 65.76C190.828 63.04 192.628 61.12 195.228 61.12C197.828 61.12 199.628 63.04 199.628 65.76C199.628 68.56 197.828 70.48 195.228 70.48ZM217.497 75.56C220.817 75.56 223.817 74.08 225.737 71.76L222.017 68.16C220.777 69.72 219.337 70.48 217.577 70.48C214.857 70.48 212.977 68.56 212.977 65.76C212.977 63.04 214.857 61.12 217.537 61.12C219.217 61.12 220.657 61.84 221.817 63.36L225.537 59.8C223.617 57.4 220.697 56.04 217.537 56.04C211.857 56.04 207.497 60.32 207.497 65.84C207.497 71.32 211.857 75.56 217.497 75.56ZM228.971 75.36C233.371 75.36 235.651 72.64 235.651 67.36V61.48H240.611V75H245.971V56.6H230.291V67.36C230.291 69.12 229.691 70 228.531 70C228.251 70 227.891 69.96 227.531 69.84V75.24C227.851 75.32 228.411 75.36 228.971 75.36ZM255.532 75.56C257.852 75.56 259.612 74.88 261.172 73.12V75H266.532V64.36C266.532 59.48 263.052 56.04 257.972 56.04C254.932 56.04 252.532 56.96 250.332 58.96L253.532 62.68C254.532 61.36 255.852 60.72 257.332 60.72C259.572 60.72 261.172 62.16 261.172 64.32V64.68C259.852 63.96 258.212 63.56 256.572 63.56C252.252 63.56 249.172 66.2 249.172 69.76C249.172 73.08 251.812 75.56 255.532 75.56ZM257.252 71.52C255.572 71.52 254.532 70.72 254.532 69.4C254.532 68.08 255.652 67.2 257.492 67.2C258.652 67.2 259.892 67.56 261.172 68.4C260.932 70.24 259.332 71.52 257.252 71.52ZM270.723 75H279.843C284.203 75 287.163 72.88 287.163 69.76C287.163 67.84 286.003 66.36 284.083 65.48C285.483 64.64 286.363 63.32 286.363 61.72C286.363 58.68 283.443 56.6 279.203 56.6H270.723V75ZM276.083 71.04V67.68H279.403C280.843 67.68 281.803 68.32 281.803 69.32C281.803 70.32 280.843 71.04 279.403 71.04H276.083ZM276.083 63.72V60.56H278.763C280.123 60.56 281.003 61.2 281.003 62.16C281.003 63.12 280.123 63.72 278.763 63.72H276.083ZM117.789 123.56C122.149 123.56 125.829 121.8 128.389 118.8L124.309 114.92C122.829 116.72 120.629 117.88 118.069 117.88C113.349 117.88 110.029 114.36 110.029 109.56C110.029 104.84 113.309 101.32 117.909 101.32C120.389 101.32 122.589 102.44 124.109 104.24L128.189 100.28C125.589 97.32 121.869 95.64 117.749 95.64C109.869 95.64 103.869 101.68 103.869 109.64C103.869 117.64 109.789 123.56 117.789 123.56ZM132.308 133H137.788L148.348 104.6H142.868L138.948 116.24L134.948 104.6H129.188L135.908 123.36L132.308 133ZM159.728 123.56C165.328 123.56 169.528 119.64 169.528 114.2C169.528 109.12 165.808 105.24 160.808 105.24C158.488 105.24 156.448 106.12 155.128 107.68C155.488 103.48 157.208 101.68 160.968 101.32C164.888 100.96 166.848 100.04 168.048 98.2L165.568 94.32C164.288 95.56 163.008 96.08 159.728 96.4C152.928 97.12 149.928 101.52 149.928 110.52V112.8C149.928 119.28 153.848 123.56 159.728 123.56ZM159.728 118.68C157.168 118.68 155.408 116.76 155.408 114.32C155.408 111.88 157.168 110.12 159.728 110.12C162.248 110.12 164.048 111.88 164.048 114.32C164.048 116.76 162.248 118.68 159.728 118.68ZM182.111 123.56C187.711 123.56 191.911 119.64 191.911 114.2C191.911 109.12 188.191 105.24 183.191 105.24C180.871 105.24 178.831 106.12 177.511 107.68C177.871 103.48 179.591 101.68 183.351 101.32C187.271 100.96 189.231 100.04 190.431 98.2L187.951 94.32C186.671 95.56 185.391 96.08 182.111 96.4C175.311 97.12 172.311 101.52 172.311 110.52V112.8C172.311 119.28 176.231 123.56 182.111 123.56ZM182.111 118.68C179.551 118.68 177.791 116.76 177.791 114.32C177.791 111.88 179.551 110.12 182.111 110.12C184.631 110.12 186.431 111.88 186.431 114.32C186.431 116.76 184.631 118.68 182.111 118.68ZM204.174 123.56C209.694 123.56 214.054 119.24 214.054 113.8C214.054 108.36 209.694 104.04 204.174 104.04C198.614 104.04 194.294 108.32 194.294 113.8C194.294 119.24 198.654 123.56 204.174 123.56ZM204.174 118.48C201.574 118.48 199.774 116.56 199.774 113.76C199.774 111.04 201.574 109.12 204.174 109.12C206.774 109.12 208.574 111.04 208.574 113.76C208.574 116.56 206.774 118.48 204.174 118.48ZM219.681 123H225.041V109.48H230.281V104.6H214.441V109.48H219.681V123ZM233.263 123.4H236.303L245.423 113.2V123H250.823V104.2H247.743L238.623 114.4V104.6H233.263V123.4ZM255.216 123H260.576V116.08H266.976V123H272.336V104.6H266.976V111.2H260.576V104.6H255.216V123Z" fill="black"/>
</svg>
