<svg width="414" height="83" viewBox="0 0 414 83" fill="none" xmlns="http://www.w3.org/2000/svg">
<path d="M0.4 28H6.6L8.2 23.48H17.44L19.08 28H25.24L14.68 0.719998H10.96L0.4 28ZM10 18.44L12.84 10.56L15.64 18.44H10ZM27.825 28H33.185V21.08H39.585V28H44.945V9.6H39.585V16.2H33.185V9.6H27.825V28ZM54.5084 28.56C56.8284 28.56 58.5884 27.88 60.1484 26.12V28H65.5084V17.36C65.5084 12.48 62.0284 9.04 56.9484 9.04C53.9084 9.04 51.5084 9.96 49.3084 11.96L52.5084 15.68C53.5084 14.36 54.8284 13.72 56.3084 13.72C58.5484 13.72 60.1484 15.16 60.1484 17.32V17.68C58.8284 16.96 57.1884 16.56 55.5484 16.56C51.2284 16.56 48.1484 19.2 48.1484 22.76C48.1484 26.08 50.7884 28.56 54.5084 28.56ZM56.2284 24.52C54.5484 24.52 53.5084 23.72 53.5084 22.4C53.5084 21.08 54.6284 20.2 56.4684 20.2C57.6284 20.2 58.8684 20.56 60.1484 21.4C59.9084 23.24 58.3084 24.52 56.2284 24.52ZM78.7 28.56C82.02 28.56 85.02 27.08 86.94 24.76L83.22 21.16C81.98 22.72 80.54 23.48 78.78 23.48C76.06 23.48 74.18 21.56 74.18 18.76C74.18 16.04 76.06 14.12 78.74 14.12C80.42 14.12 81.86 14.84 83.02 16.36L86.74 12.8C84.82 10.4 81.9 9.04 78.74 9.04C73.06 9.04 68.7 13.32 68.7 18.84C68.7 24.32 73.06 28.56 78.7 28.56ZM92.9931 28H98.3531V14.48H103.593V9.6H87.7531V14.48H92.9931V28ZM110.954 28.56C113.274 28.56 115.034 27.88 116.594 26.12V28H121.954V17.36C121.954 12.48 118.474 9.04 113.394 9.04C110.354 9.04 107.954 9.96 105.754 11.96L108.954 15.68C109.954 14.36 111.274 13.72 112.754 13.72C114.994 13.72 116.594 15.16 116.594 17.32V17.68C115.274 16.96 113.634 16.56 111.994 16.56C107.674 16.56 104.594 19.2 104.594 22.76C104.594 26.08 107.234 28.56 110.954 28.56ZM112.674 24.52C110.994 24.52 109.954 23.72 109.954 22.4C109.954 21.08 111.074 20.2 112.914 20.2C114.074 20.2 115.314 20.56 116.594 21.4C116.354 23.24 114.754 24.52 112.674 24.52ZM135.145 28.56C138.465 28.56 141.465 27.08 143.385 24.76L139.665 21.16C138.425 22.72 136.985 23.48 135.225 23.48C132.505 23.48 130.625 21.56 130.625 18.76C130.625 16.04 132.505 14.12 135.185 14.12C136.865 14.12 138.305 14.84 139.465 16.36L143.185 12.8C141.265 10.4 138.345 9.04 135.185 9.04C129.505 9.04 125.145 13.32 125.145 18.84C125.145 24.32 129.505 28.56 135.145 28.56ZM146.38 28.4H149.42L158.54 18.2V28H163.94V9.2H160.86L151.74 19.4V9.6H146.38V28.4ZM167.333 28H173.493L176.773 22.36H178.613V28H183.973V9.6H175.493C170.533 9.6 167.893 12.28 167.893 16C167.893 18.48 169.053 20.48 171.293 21.52L167.333 28ZM175.893 18.16C174.293 18.16 173.253 17.4 173.253 16.12C173.253 14.88 174.333 14 175.893 14H178.613V18.16H175.893ZM202.35 28H208.19V6.68H215.99V1.2H194.55V6.68H202.35V28ZM224.674 28.56C230.194 28.56 234.554 24.24 234.554 18.8C234.554 13.36 230.194 9.04 224.674 9.04C219.114 9.04 214.794 13.32 214.794 18.8C214.794 24.24 219.154 28.56 224.674 28.56ZM224.674 23.48C222.074 23.48 220.274 21.56 220.274 18.76C220.274 16.04 222.074 14.12 224.674 14.12C227.274 14.12 229.074 16.04 229.074 18.76C229.074 21.56 227.274 23.48 224.674 23.48ZM238.182 28.36C242.582 28.36 244.862 25.64 244.862 20.36V14.48H249.822V28H255.182V9.6H239.502V20.36C239.502 22.12 238.902 23 237.742 23C237.462 23 237.102 22.96 236.742 22.84V28.24C237.062 28.32 237.622 28.36 238.182 28.36ZM284.263 33.2H289.623V23.12H286.783V9.6H281.423V23.12H275.863V9.6H270.503V23.12H264.943V9.6H259.583V28H284.263V33.2ZM292.63 28.4H295.67L304.79 18.2V28H310.19V9.2H307.11L297.99 19.4V9.6H292.63V28.4ZM314.583 28H319.943V21.08H326.343V28H331.703V9.6H326.343V16.2H319.943V9.6H314.583V28ZM341.266 28.56C343.586 28.56 345.346 27.88 346.906 26.12V28H352.266V17.36C352.266 12.48 348.786 9.04 343.706 9.04C340.666 9.04 338.266 9.96 336.066 11.96L339.266 15.68C340.266 14.36 341.586 13.72 343.066 13.72C345.306 13.72 346.906 15.16 346.906 17.32V17.68C345.586 16.96 343.946 16.56 342.306 16.56C337.986 16.56 334.906 19.2 334.906 22.76C334.906 26.08 337.546 28.56 341.266 28.56ZM342.986 24.52C341.306 24.52 340.266 23.72 340.266 22.4C340.266 21.08 341.386 20.2 343.226 20.2C344.386 20.2 345.626 20.56 346.906 21.4C346.666 23.24 345.066 24.52 342.986 24.52ZM258.283 76H265.283C270.723 76 274.643 72.56 274.643 67.84C274.643 63.16 270.723 59.76 265.203 59.76H262.003V52.68H272.523V49.2H258.283V76ZM262.003 72.52V63.24H265.203C268.643 63.24 270.923 65.04 270.923 67.84C270.923 70.72 268.643 72.52 265.203 72.52H262.003ZM279.201 76H296.441V72.52H282.921C282.921 69.8 285.641 67.92 288.441 66.2C293.281 63.28 296.361 60.72 296.361 56.52C296.361 52.04 292.841 48.76 287.921 48.76C283.241 48.76 279.921 51.72 279.041 56.64L282.481 57.32C283.241 53.96 285.121 52.24 287.921 52.24C290.681 52.24 292.641 54 292.641 56.6C292.641 59.4 290.241 61.16 286.641 63.24C282.721 65.6 279.201 68.08 279.201 72.72V76ZM301.193 76H318.433V72.52H304.913C304.913 69.8 307.633 67.92 310.433 66.2C315.273 63.28 318.353 60.72 318.353 56.52C318.353 52.04 314.833 48.76 309.913 48.76C305.233 48.76 301.913 51.72 301.033 56.64L304.473 57.32C305.233 53.96 307.113 52.24 309.913 52.24C312.673 52.24 314.633 54 314.633 56.6C314.633 59.4 312.233 61.16 308.633 63.24C304.713 65.6 301.193 68.08 301.193 72.72V76ZM321.425 82.08H325.145V76H342.505V82.08H346.225V72.52H342.945V49.2H325.865V61C325.865 68.16 324.145 72.52 321.425 72.52V82.08ZM327.145 72.52C328.865 70.12 329.585 66.72 329.585 60.92V52.68H339.225V72.52H327.145ZM357.662 76.44C362.742 76.44 366.422 73.2 366.422 68.72C366.422 65.52 364.582 63.08 361.702 61.88C363.982 60.56 365.382 58.4 365.382 55.72C365.382 51.68 362.182 48.76 357.702 48.76C354.422 48.76 351.582 50.32 349.822 53.12L352.502 55.24C353.742 53.16 355.262 52.24 357.342 52.24C359.902 52.24 361.662 53.76 361.662 56.12C361.662 58.72 359.542 60.36 356.222 60.36H354.062V63.84H356.342C360.302 63.84 362.702 65.56 362.702 68.52C362.702 71.24 360.662 72.96 357.622 72.96C354.942 72.96 352.902 71.64 351.622 68.92L348.622 70.96C350.422 74.48 353.702 76.44 357.662 76.44ZM380.753 76.44C386.753 76.44 390.673 70.84 390.673 62.6C390.673 54.32 386.753 48.76 380.753 48.76C374.793 48.76 370.833 54.28 370.833 62.6C370.833 70.92 374.793 76.44 380.753 76.44ZM380.753 72.92C376.993 72.92 374.793 69.08 374.793 62.6C374.793 56.16 376.993 52.28 380.753 52.28C384.473 52.28 386.713 56.16 386.713 62.6C386.713 69.04 384.473 72.92 380.753 72.92ZM404.131 76.44C409.331 76.44 413.291 73 413.291 68.56C413.291 65.52 411.491 63 408.691 61.68C410.731 60.48 412.011 58.4 412.011 55.92C412.011 51.88 408.571 48.76 404.131 48.76C399.651 48.76 396.171 51.88 396.171 55.92C396.171 58.36 397.491 60.48 399.531 61.68C396.731 63 394.891 65.52 394.891 68.56C394.891 73 398.851 76.44 404.131 76.44ZM404.131 73.08C400.931 73.08 398.611 71.08 398.611 68.28C398.611 65.52 400.931 63.52 404.131 63.52C407.291 63.52 409.571 65.48 409.571 68.28C409.571 71.08 407.291 73.08 404.131 73.08ZM404.131 60.16C401.651 60.16 399.891 58.48 399.891 56.12C399.891 53.8 401.651 52.12 404.131 52.12C406.571 52.12 408.291 53.8 408.291 56.12C408.291 58.48 406.571 60.16 404.131 60.16Z" fill="black"/>
</svg>
